<svg width="123" height="35" viewBox="0 0 123 35" fill="none" xmlns="http://www.w3.org/2000/svg">
<g clip-path="url(#clip0_202_4256)">
<path d="M24.6001 24.6042V13.9071H22.4277V10.7717H24.6001V9.38364C24.5882 8.55865 24.7814 7.74361 25.1623 7.01172C25.526 6.31801 26.0789 5.74162 26.7569 5.34946C27.4879 4.93604 28.3169 4.72744 29.1566 4.74564C29.749 4.74168 30.3371 4.84636 30.8917 5.05449C31.4028 5.24769 31.8735 5.53422 32.2798 5.8995L31.1797 8.60631C30.9581 8.45128 30.7201 8.32094 30.4701 8.21764C30.2537 8.12524 30.0216 8.07518 29.7864 8.07015C28.7685 8.07015 28.2589 8.5797 28.2578 9.5988V10.7787H31.3411V13.9141H28.2717V24.6112L24.6001 24.6042ZM36.1804 8.17599C35.4655 8.17599 34.9068 7.99728 34.5042 7.63984C34.3017 7.45333 34.1427 7.22448 34.0387 6.96957C33.9346 6.71466 33.888 6.43995 33.9022 6.16498C33.8916 5.89043 33.9399 5.61681 34.0437 5.36244C34.1476 5.10808 34.3046 4.87885 34.5042 4.69012C34.9068 4.31533 35.4655 4.12793 36.1804 4.12793C36.8953 4.12793 37.4493 4.30665 37.8426 4.66409C38.2348 5.02153 38.4314 5.52182 38.4326 6.16498C38.4415 6.43537 38.3922 6.70451 38.288 6.95419C38.1838 7.20386 38.0272 7.42822 37.8288 7.61208C37.4262 7.98918 36.8768 8.17715 36.1804 8.17599ZM34.3568 24.6042V10.449H38.0318V24.6042H34.3568Z" fill="#491B47"/>
<path d="M42.1328 24.6046V10.4494H45.6673L45.7211 12.7814C46.1806 12.0195 46.8086 11.3731 47.5568 10.8918C48.267 10.4157 49.1016 10.1592 49.9565 10.1544C50.2569 10.1527 50.5569 10.1754 50.8536 10.2221C51.0955 10.2582 51.3336 10.3163 51.565 10.3956L50.5725 14.4176C50.3354 14.2956 50.0834 14.2052 49.8229 14.1486C49.5238 14.0779 49.2176 14.0418 48.9102 14.0411C48.5014 14.0332 48.0952 14.1089 47.7166 14.2634C47.338 14.4179 46.9949 14.6481 46.7084 14.9399C46.4118 15.2362 46.1791 15.5902 46.0245 15.9799C45.8699 16.3696 45.7968 16.7869 45.8096 17.206V24.6046H42.1328Z" fill="#491B47"/>
<path d="M59.8518 24.871C58.3318 24.871 57.0015 24.5581 55.861 23.9323C54.7499 23.3394 53.8263 22.4482 53.1941 21.3591C52.5428 20.2146 52.2125 18.9156 52.238 17.599C52.2102 16.2503 52.5286 14.9169 53.1628 13.7262C53.7579 12.6321 54.6381 11.7196 55.71 11.0854C56.8446 10.4277 58.138 10.094 59.4492 10.1206C60.6352 10.1028 61.8029 10.414 62.8228 11.0195C63.8428 11.625 64.675 12.5012 65.2272 13.551C65.8035 14.6672 66.0758 15.9156 66.0167 17.1705L65.9907 18.3226H55.8037C55.9646 19.2842 56.4873 20.1477 57.2647 20.7362C58.042 21.3261 59.0293 21.6211 60.2265 21.6211C60.8248 21.6285 61.4195 21.5286 61.9825 21.3261C62.6033 21.075 63.1784 20.7233 63.6847 20.285L65.4476 22.7541C64.6722 23.4346 63.7766 23.9642 62.8067 24.3157C61.8625 24.6749 60.8619 24.8629 59.8518 24.871ZM59.477 13.2907C57.4573 13.2907 56.2427 14.2022 55.8332 16.0253H62.5325V15.9177C62.5141 15.5538 62.4198 15.1977 62.2558 14.8723C62.0917 14.5469 61.8616 14.2594 61.58 14.0281C60.9924 13.5341 60.2444 13.2718 59.477 13.2907Z" fill="#491B47"/>
<path d="M72.0761 24.6043V9.35077H66.6348V5.83887H81.5395V9.35077H75.9368V24.6043H72.0761Z" fill="#491B47"/>
<path d="M84.8887 24.6043V5.83887H88.4544L94.1369 15.1131L99.927 5.83887H103.331V24.6043H99.5523V17.9831C99.5523 16.8911 99.5702 15.8766 99.606 14.9396C99.6419 14.0027 99.6951 13.0958 99.7657 12.2189L94.9438 19.6974H93.1757L88.4544 12.2727C88.5423 13.0952 88.6001 13.9662 88.6279 14.8858C88.6556 15.8055 88.6689 16.8379 88.6678 17.9831V24.6043H84.8887Z" fill="#491B47"/>
<path d="M114.323 24.8711C112.588 24.8711 111.101 24.5541 109.861 23.9202C108.599 23.2684 107.51 22.3264 106.684 21.1718L109.123 18.4112C109.999 19.6258 110.866 20.4523 111.726 20.8907C112.607 21.3333 113.581 21.5583 114.566 21.5465C115.313 21.571 116.052 21.3853 116.699 21.0104C117.277 20.6529 117.566 20.1706 117.566 19.5633C117.566 18.8311 117.196 18.2527 116.454 17.8282C115.559 17.3547 114.595 17.0245 113.598 16.8495C111.578 16.4192 110.075 15.731 109.087 14.7847C108.099 13.8385 107.607 12.5788 107.612 11.0056C107.595 9.96716 107.925 8.95277 108.551 8.12357C109.197 7.27459 110.051 6.60553 111.03 6.18022C112.106 5.70627 113.272 5.46955 114.448 5.48617C116.111 5.48617 117.491 5.76784 118.59 6.33118C119.666 6.87326 120.571 7.70338 121.203 8.72913L118.717 11.1791C117.609 9.60711 116.197 8.82109 114.481 8.82109C113.588 8.82109 112.869 9.00386 112.323 9.36939C112.069 9.52493 111.86 9.74409 111.716 10.0052C111.573 10.2663 111.5 10.5603 111.506 10.8581C111.506 11.5198 111.823 12.0403 112.458 12.4198C113.093 12.7992 113.946 13.0941 115.017 13.3047C116.984 13.7153 118.546 14.3718 119.702 15.274C120.859 16.1763 121.437 17.3874 121.437 18.9074C121.437 20.1579 121.138 21.2302 120.539 22.1243C119.921 23.033 119.056 23.7449 118.045 24.1753C116.867 24.6661 115.599 24.9032 114.323 24.8711Z" fill="#491B47"/>
<path d="M8.20197 24.6025H0V32.8045H8.20197V24.6025Z" fill="#FF9017"/>
<path d="M8.20023 16.4023L0 24.6026H8.20023L16.4005 16.4023H8.20023Z" fill="#FFB000"/>
<path d="M8.20197 8.2002H0V16.4022H8.20197V8.2002Z" fill="#FF9017"/>
<path d="M8.20023 0L0 8.20023H8.20023L16.4005 0H8.20023Z" fill="#FFB000"/>
<path d="M26.4013 32.7911C26.07 32.7967 25.7437 32.7092 25.4597 32.5386C25.1853 32.37 24.9606 32.1316 24.8087 31.8479C24.652 31.5409 24.5703 31.2012 24.5703 30.8567C24.5703 30.5121 24.652 30.1725 24.8087 29.8655C24.963 29.5752 25.1949 29.3333 25.4786 29.1668C25.7624 29.0002 26.0868 28.9156 26.4159 28.9222C26.7175 28.917 27.0162 28.9827 27.2878 29.1138C27.5389 29.2332 27.7551 29.4151 27.9155 29.642L27.6017 30.0251C27.4621 29.8461 27.2844 29.7003 27.0814 29.5985C26.8872 29.4919 26.6695 29.435 26.4479 29.4331C26.2072 29.4296 25.9705 29.494 25.7648 29.6188C25.5656 29.7422 25.403 29.9166 25.294 30.1238C25.1772 30.3508 25.1183 30.603 25.1226 30.8581C25.1188 31.1117 25.1788 31.3622 25.2969 31.5866C25.4071 31.7948 25.5706 31.97 25.7707 32.0946C25.9721 32.2192 26.2051 32.2837 26.442 32.2803C26.6647 32.2776 26.8837 32.2239 27.0823 32.1232C27.2808 32.0226 27.4535 31.8777 27.5871 31.6998L27.9068 32.0916C27.7253 32.3076 27.4952 32.4776 27.2355 32.588C26.9762 32.7173 26.6911 32.7867 26.4013 32.7911Z" fill="#491B47"/>
<path d="M28.6016 32.722V27.457H29.1422V32.722H28.6016Z" fill="#491B47"/>
<path d="M31.7727 32.7921C31.4293 32.7983 31.0908 32.711 30.7933 32.5396C30.5084 32.3747 30.2735 32.136 30.1132 31.8488C29.9491 31.5426 29.8633 31.2006 29.8633 30.8533C29.8633 30.506 29.9491 30.164 30.1132 29.8578C30.2737 29.5723 30.5088 29.3355 30.7933 29.1728C31.0934 29.0082 31.4303 28.9219 31.7727 28.9219C32.1151 28.9219 32.452 29.0082 32.7521 29.1728C33.035 29.3358 33.2681 29.5726 33.4264 29.8578C33.5886 30.1646 33.6733 30.5063 33.6733 30.8533C33.6733 31.2003 33.5886 31.542 33.4264 31.8488C33.2683 32.1357 33.0353 32.3744 32.7521 32.5396C32.4544 32.7103 32.116 32.7975 31.7727 32.7921ZM31.7727 32.2813C32.012 32.2856 32.2478 32.2229 32.4532 32.1003C32.6587 31.9777 32.8257 31.8001 32.9352 31.5876C33.0508 31.3593 33.1087 31.1062 33.1038 30.8504C33.1094 30.5973 33.0515 30.3468 32.9352 30.1219C32.8464 29.9656 32.7273 29.8284 32.5849 29.7184C32.4425 29.6084 32.2797 29.5277 32.1059 29.481C31.9321 29.4343 31.7507 29.4225 31.5723 29.4463C31.3938 29.4702 31.2219 29.5291 31.0665 29.6198C30.8649 29.7421 30.7002 29.9166 30.5899 30.1248C30.4737 30.3488 30.4147 30.5981 30.4184 30.8504C30.4145 31.1064 30.4734 31.3595 30.5899 31.5876C30.6985 31.7978 30.8635 31.9737 31.0665 32.0955C31.2798 32.2224 31.5245 32.2868 31.7727 32.2813Z" fill="#491B47"/>
<path d="M35.7658 32.7915C35.5838 32.8032 35.4013 32.7747 35.2315 32.708C35.0617 32.6413 34.9088 32.538 34.7835 32.4055C34.5361 32.0831 34.4152 31.6816 34.4435 31.2764V29.001H34.9899V31.1691C34.9899 31.9237 35.3008 32.301 35.9228 32.301C36.1177 32.3035 36.31 32.2555 36.4808 32.1617C36.643 32.0721 36.7792 31.9421 36.8761 31.7844C36.973 31.6253 37.0234 31.4423 37.0214 31.2561V29.001H37.562V32.7218H37.0272L37.0068 32.0804C36.8848 32.2933 36.7069 32.4688 36.4924 32.5883C36.2738 32.7221 36.0222 32.7925 35.7658 32.7915Z" fill="#491B47"/>
<path d="M40.1198 32.7916C39.7969 32.7982 39.4791 32.7115 39.2043 32.542C38.9353 32.3748 38.7164 32.1381 38.5708 31.857C38.4123 31.5484 38.3324 31.2055 38.3382 30.8586C38.3319 30.5133 38.4129 30.1719 38.5737 29.866C38.7209 29.5845 38.9393 29.3463 39.2072 29.1752C39.476 29.0064 39.7878 28.9188 40.1053 28.9227C40.3801 28.9199 40.6511 28.9868 40.8929 29.1172C41.1139 29.2322 41.305 29.3972 41.4509 29.599V27.457H41.9915V32.722H41.4596V32.095C41.3196 32.3072 41.1248 32.4777 40.8958 32.5885C40.6593 32.7225 40.3918 32.7926 40.1198 32.7916ZM40.1896 32.2953C40.4237 32.298 40.6537 32.2335 40.8522 32.1096C41.0481 31.9844 41.2068 31.809 41.3114 31.6016C41.4216 31.3689 41.4788 31.1146 41.4788 30.8572C41.4788 30.5997 41.4216 30.3455 41.3114 30.1127C41.2068 29.9053 41.0481 29.7299 40.8522 29.6048C40.6534 29.4817 40.4234 29.4182 40.1896 29.422C39.9538 29.4179 39.7219 29.4814 39.5211 29.6048C39.3261 29.7301 39.1684 29.9055 39.0648 30.1127C38.9576 30.3453 38.9021 30.5983 38.9021 30.8543C38.9021 31.1103 38.9576 31.3633 39.0648 31.5958C39.1666 31.8058 39.3245 31.9836 39.5211 32.1096C39.7213 32.235 39.9533 32.3005 40.1896 32.2982V32.2953Z" fill="#491B47"/>
<path d="M45.545 32.7216V29.529H44.7109V29.0095H45.545V28.043H46.0856V29.0095H47.0185V29.529H46.0856V32.7216H45.545Z" fill="#491B47"/>
<path d="M47.6758 32.7222V29.0013H48.2164V29.7182C48.317 29.4942 48.4743 29.3001 48.6727 29.1551C48.8726 29.0019 49.1182 28.9201 49.3702 28.9229C49.4463 28.922 49.5222 28.9288 49.5969 28.9433C49.6567 28.9547 49.7159 28.9692 49.7742 28.9868L49.6259 29.5905C49.5094 29.5399 49.3839 29.5133 49.2568 29.5121C49.0597 29.5075 48.8656 29.561 48.6988 29.666C48.5442 29.7644 48.4203 29.9041 48.3413 30.0694C48.2567 30.2387 48.2139 30.4258 48.2164 30.615V32.7222H47.6758Z" fill="#491B47"/>
<path d="M51.6483 32.7919C51.3393 32.7943 51.0362 32.7066 50.7764 32.5394C50.512 32.3685 50.2983 32.13 50.1574 31.8486C50.0063 31.5385 49.9277 31.1981 49.9277 30.8531C49.9277 30.5082 50.0063 30.1678 50.1574 29.8576C50.305 29.577 50.5247 29.3406 50.7939 29.1726C51.0603 29.0062 51.3689 28.9195 51.6832 28.923C51.9642 28.9188 52.2413 28.9899 52.4853 29.1291C52.7087 29.2565 52.8943 29.4407 53.023 29.6631V29.0014H53.5636V32.7223H53.0143V32.0605C52.8675 32.2806 52.6676 32.4603 52.433 32.5829C52.1934 32.7179 51.9234 32.7899 51.6483 32.7919ZM51.7675 32.2724C52.0009 32.2757 52.2305 32.2133 52.4301 32.0924C52.6264 31.9703 52.7852 31.7966 52.8893 31.5903C53.0058 31.3613 53.0637 31.107 53.0579 30.8502C53.0624 30.5982 53.0045 30.3489 52.8893 30.1246C52.7845 29.9189 52.6258 29.7454 52.4301 29.6225C52.2287 29.5047 51.9995 29.4425 51.766 29.4425C51.5326 29.4425 51.3034 29.5047 51.1019 29.6225C50.9088 29.7458 50.753 29.9194 50.6514 30.1246C50.5385 30.3496 50.4816 30.5986 50.4858 30.8502C50.4814 31.1056 50.5382 31.3584 50.6514 31.5874C50.7507 31.7975 50.9092 31.9742 51.1074 32.0958C51.3056 32.2175 51.5349 32.2788 51.7675 32.2724Z" fill="#491B47"/>
<path d="M54.5977 32.7216V29.0008H55.1353V29.6335C55.2625 29.4203 55.4453 29.2458 55.6643 29.1285C55.8946 28.9946 56.1563 28.9235 56.4228 28.9224C56.5979 28.9109 56.7733 28.9392 56.9358 29.005C57.0984 29.0709 57.244 29.1726 57.3616 29.3026C57.5979 29.6416 57.7098 30.0517 57.6784 30.4636V32.7274H57.1291V30.5013C57.1291 29.7757 56.8384 29.4197 56.2572 29.4332C56.0543 29.4292 55.8539 29.4782 55.6759 29.5754C55.513 29.665 55.3758 29.795 55.2777 29.9528C55.1803 30.1053 55.1288 30.2826 55.1295 30.4636V32.7274L54.5977 32.7216Z" fill="#491B47"/>
<path d="M59.9345 32.7918C59.6345 32.7987 59.3368 32.7392 59.0626 32.6177C58.8267 32.5109 58.6202 32.3485 58.4609 32.1446L58.8475 31.8108C58.9805 31.9768 59.151 32.1091 59.3449 32.1969C59.5388 32.2846 59.7508 32.3254 59.9635 32.3158C60.162 32.324 60.358 32.2702 60.5245 32.162C60.594 32.1159 60.6506 32.0527 60.6888 31.9785C60.7269 31.9043 60.7454 31.8216 60.7424 31.7382C60.7425 31.6642 60.7242 31.5913 60.6892 31.5259C60.6542 31.4606 60.6036 31.4049 60.5419 31.3638C60.4613 31.3049 60.3721 31.2589 60.2774 31.2274C60.164 31.1839 60.0275 31.1404 59.8647 31.091C59.6378 31.0344 59.4162 30.9586 59.2021 30.8646C59.0474 30.7947 58.9074 30.6962 58.7894 30.5744C58.6445 30.4073 58.5686 30.1915 58.5772 29.9707C58.574 29.7769 58.632 29.587 58.7429 29.4279C58.8614 29.2641 59.0207 29.1341 59.205 29.0506C59.4147 28.9553 59.643 28.9077 59.8734 28.9113C60.1394 28.9109 60.4021 28.9683 60.6436 29.0796C60.8757 29.1771 61.0839 29.3237 61.2539 29.5092L60.9197 29.872C60.7821 29.7283 60.6221 29.6077 60.446 29.515C60.2775 29.4265 60.0899 29.3807 59.8996 29.3815C59.7014 29.3714 59.5054 29.4264 59.3416 29.5382C59.2755 29.5845 59.2218 29.6463 59.1853 29.7182C59.1488 29.79 59.1306 29.8698 59.1323 29.9504C59.131 30.0157 59.145 30.0805 59.1732 30.1395C59.2015 30.1985 59.2432 30.25 59.2951 30.29C59.384 30.3536 59.482 30.4035 59.5857 30.438C59.7078 30.4815 59.856 30.5279 60.0391 30.5744C60.2222 30.6208 60.4169 30.6905 60.5651 30.7485C60.6963 30.8004 60.8188 30.8718 60.9284 30.9604C61.0439 31.0452 61.1366 31.1571 61.1985 31.2861C61.2603 31.4152 61.2894 31.5576 61.283 31.7005C61.2864 31.9006 61.2241 32.0963 61.1057 32.2578C60.9816 32.4269 60.8138 32.5593 60.6204 32.6409C60.4053 32.7401 60.1713 32.7916 59.9345 32.7918Z" fill="#491B47"/>
<path d="M62.1113 34.2866V29.0014H62.6519V29.6776C62.7842 29.4548 62.9739 29.2714 63.2012 29.1465C63.4417 29.0026 63.7172 28.9274 63.9975 28.9288C64.3145 28.9253 64.626 29.0118 64.8956 29.1784C65.1639 29.347 65.3817 29.5846 65.5263 29.8663C65.6837 30.1731 65.7626 30.5142 65.7559 30.8589C65.7619 31.2023 65.684 31.542 65.5292 31.8486C65.3871 32.1302 65.1711 32.3679 64.9043 32.5365C64.6501 32.6919 64.3594 32.7778 64.0615 32.7854C63.7635 32.7931 63.4688 32.7222 63.207 32.58C62.9803 32.4601 62.7889 32.283 62.6519 32.0663V34.2866H62.1113ZM63.9278 32.2724C64.1636 32.2769 64.3957 32.2134 64.5962 32.0895C64.7914 31.9648 64.9499 31.7905 65.0554 31.5845C65.1706 31.3602 65.2285 31.1109 65.224 30.8589C65.2293 30.6068 65.1713 30.3573 65.0554 30.1333C64.9522 29.9264 64.7932 29.7525 64.5962 29.6312C64.3957 29.5073 64.1636 29.4438 63.9278 29.4483C63.6902 29.4444 63.4564 29.5078 63.2535 29.6312C63.0579 29.7525 62.8983 29.9239 62.7914 30.1275C62.6775 30.3542 62.6207 30.6053 62.6258 30.8589C62.6209 31.1128 62.6787 31.3641 62.7943 31.5903C62.9022 31.7957 63.0627 31.9689 63.2593 32.0924C63.4632 32.2157 63.6982 32.2781 63.9365 32.2724H63.9278Z" fill="#491B47"/>
<path d="M68.1964 32.7913C67.853 32.7975 67.5144 32.7102 67.2169 32.5388C66.9319 32.3732 66.6962 32.1347 66.534 31.848C66.3718 31.5412 66.2871 31.1995 66.2871 30.8525C66.2871 30.5056 66.3718 30.1638 66.534 29.857C66.6964 29.572 66.9322 29.3355 67.2169 29.172C67.5167 29.0079 67.8531 28.9219 68.195 28.9219C68.5368 28.9219 68.8732 29.0079 69.1729 29.172C69.4573 29.334 69.6915 29.571 69.8501 29.857C70.0122 30.1638 70.0969 30.5056 70.0969 30.8525C70.0969 31.1995 70.0122 31.5412 69.8501 31.848C69.6917 32.1356 69.4575 32.3745 69.1729 32.5388C68.8764 32.7098 68.5388 32.7971 68.1964 32.7913ZM68.1964 32.2805C68.4399 32.2853 68.6798 32.2209 68.8881 32.0947C69.0902 31.9727 69.2543 31.7968 69.3618 31.5868C69.4797 31.3592 69.5386 31.1058 69.5333 30.8496C69.5393 30.5961 69.4803 30.3453 69.3618 30.1211C69.2524 29.9139 69.0887 29.7404 68.8881 29.619C68.6792 29.4941 68.4397 29.4298 68.1964 29.4332C67.9503 29.4302 67.7081 29.4944 67.496 29.619C67.2944 29.7413 67.1297 29.9158 67.0193 30.124C66.9031 30.348 66.8442 30.5973 66.8479 30.8496C66.844 31.1056 66.9028 31.3587 67.0193 31.5868C67.1279 31.797 67.293 31.9729 67.496 32.0947C67.7076 32.2206 67.9501 32.2849 68.1964 32.2805Z" fill="#491B47"/>
<path d="M70.873 32.7221V29.0013H71.4107V29.7181C71.5114 29.4941 71.6686 29.3001 71.867 29.1551C71.9982 29.0582 72.148 28.9893 72.307 28.9529C72.466 28.9164 72.6309 28.9131 72.7912 28.9432C72.851 28.9547 72.9102 28.9692 72.9685 28.9868L72.8203 29.5904C72.7037 29.5399 72.5782 29.5132 72.4512 29.5121C72.2541 29.5075 72.06 29.561 71.8932 29.6659C71.7385 29.7643 71.6147 29.9041 71.5357 30.0693C71.4511 30.2387 71.4082 30.4258 71.4107 30.615V32.7221H70.873Z" fill="#491B47"/>
<path d="M74.1935 32.7216V29.529H73.3594V29.0095H74.1935V28.043H74.7341V29.0095H75.667V29.529H74.7341V32.7216H74.1935Z" fill="#491B47"/>
<path d="M78.3164 32.7215V29.0007H78.857V29.6421C78.9823 29.4255 79.1641 29.2469 79.383 29.1255C79.6079 28.9946 79.8639 28.9264 80.1241 28.9281C80.3641 28.9222 80.6006 28.9868 80.8042 29.1139C81.0129 29.2711 81.1624 29.494 81.2285 29.7466C81.3047 29.5922 81.4115 29.455 81.5424 29.3431C81.6824 29.2199 81.8427 29.1217 82.0161 29.0529C82.1943 28.9764 82.3861 28.9369 82.58 28.9368C82.7497 28.9258 82.9196 28.9548 83.0761 29.0213C83.2326 29.0878 83.3713 29.1901 83.4809 29.3199C83.7126 29.6609 83.8222 30.07 83.7919 30.4809V32.7215H83.2426V30.507C83.2654 30.2226 83.1928 29.9388 83.0363 29.7001C82.9605 29.6117 82.8651 29.5422 82.7576 29.4973C82.65 29.4525 82.5335 29.4334 82.4172 29.4418C82.2141 29.4353 82.0131 29.4845 81.836 29.584C81.6755 29.6739 81.5413 29.8039 81.4465 29.9614C81.3565 30.1165 81.3094 30.2928 81.3099 30.4722V32.7215H80.7606V30.5012C80.7606 29.7969 80.4855 29.4438 79.9352 29.4418C79.7383 29.4386 79.544 29.4866 79.3714 29.5811C79.2106 29.6661 79.0764 29.7936 78.9836 29.9498C78.8908 30.106 78.843 30.2848 78.8453 30.4664V32.7215H78.3164Z" fill="#491B47"/>
<path d="M86.2649 32.7919C85.9558 32.7943 85.6528 32.7066 85.393 32.5394C85.13 32.3668 84.9167 32.1287 84.7739 31.8486C84.619 31.542 84.5412 31.2023 84.5472 30.8589C84.5409 30.5108 84.6219 30.1666 84.7826 29.8576C84.9291 29.5771 85.1478 29.3406 85.4162 29.1726C85.6826 29.0062 85.9913 28.9195 86.3056 28.923C86.5866 28.9188 86.8636 28.9899 87.1077 29.1291C87.3311 29.2565 87.5166 29.4407 87.6454 29.6631L87.6599 29.0014H88.2005V32.7223H87.6512V32.0605C87.5052 32.2813 87.3051 32.4611 87.0699 32.5829C86.8243 32.7213 86.5468 32.7933 86.2649 32.7919ZM86.3869 32.2724C86.6194 32.2756 86.8481 32.2132 87.0467 32.0924C87.2432 31.9697 87.4028 31.7962 87.5088 31.5903C87.6274 31.3607 87.6883 31.1057 87.6861 30.8473C87.6902 30.5957 87.6334 30.3467 87.5204 30.1217C87.4136 29.9164 87.2541 29.7432 87.0583 29.6196C86.8597 29.4988 86.631 29.4364 86.3985 29.4397C86.1659 29.4328 85.9363 29.4936 85.7376 29.6147C85.539 29.7358 85.3798 29.9119 85.2796 30.1217C85.1666 30.3467 85.1098 30.5957 85.114 30.8473C85.1095 31.1027 85.1663 31.3555 85.2796 31.5845C85.3791 31.7951 85.538 31.9721 85.7367 32.0937C85.9355 32.2154 86.1655 32.2765 86.3985 32.2695L86.3869 32.2724Z" fill="#491B47"/>
<path d="M89.2266 32.7225V29.0016H89.7613V29.6343C89.8888 29.4204 90.0728 29.2457 90.2932 29.1293C90.5232 28.9946 90.785 28.9235 91.0517 28.9232C91.2263 28.9122 91.4011 28.9407 91.5631 29.0065C91.7252 29.0723 91.8703 29.1738 91.9876 29.3034C92.2252 29.6418 92.3372 30.0524 92.3043 30.4644V32.7282H91.755V30.5021C91.755 29.7765 91.4644 29.4205 90.8832 29.434C90.6803 29.43 90.4799 29.479 90.3019 29.5762C90.139 29.6658 90.0018 29.7958 89.9037 29.9536C89.8071 30.1064 89.7567 30.2837 89.7584 30.4644V32.7282L89.2266 32.7225Z" fill="#491B47"/>
<path d="M94.7899 32.7919C94.4808 32.7949 94.1776 32.7071 93.918 32.5394C93.6536 32.3685 93.4399 32.13 93.299 31.8487C93.146 31.539 93.0664 31.1984 93.0664 30.8531C93.0664 30.5079 93.146 30.1672 93.299 29.8576C93.4464 29.5777 93.6649 29.3415 93.9326 29.1726C94.2002 29.0065 94.5097 28.92 94.8249 28.923C95.105 28.9187 95.3811 28.9899 95.6241 29.1291C95.8485 29.2551 96.0344 29.4397 96.1618 29.6631V29.0014H96.7052V32.7223H96.1559V32.0605C96.0091 32.2806 95.8092 32.4603 95.5747 32.5829C95.335 32.7178 95.065 32.7897 94.7899 32.7919ZM94.912 32.2724C95.1454 32.2757 95.3751 32.2133 95.5747 32.0924C95.7709 31.9703 95.9298 31.7966 96.0339 31.5903C96.149 31.3608 96.2069 31.1069 96.2024 30.8502C96.2056 30.5983 96.1477 30.3494 96.0339 30.1246C95.929 29.9189 95.7704 29.7454 95.5747 29.6225C95.3733 29.5047 95.144 29.4425 94.9106 29.4425C94.6771 29.4425 94.4479 29.5047 94.2465 29.6225C94.0532 29.7465 93.8967 29.9199 93.7931 30.1246C93.6825 30.3504 93.6267 30.599 93.6303 30.8502C93.6264 31.1053 93.6822 31.3577 93.7931 31.5874C93.8958 31.7936 94.0524 31.9681 94.2465 32.0924C94.4466 32.2145 94.6775 32.2769 94.912 32.2724Z" fill="#491B47"/>
<path d="M99.3564 34.3563C99.0914 34.3588 98.8279 34.3156 98.5775 34.2286C98.3562 34.1562 98.1481 34.0483 97.9614 33.9093L98.1823 33.4537C98.3399 33.5779 98.5165 33.6759 98.7054 33.7439C98.9188 33.8207 99.1441 33.859 99.371 33.8571C99.5435 33.8677 99.7163 33.8433 99.8791 33.7854C100.042 33.7276 100.191 33.6374 100.318 33.5204C100.44 33.3858 100.533 33.2279 100.592 33.0563C100.651 32.8847 100.675 32.7029 100.661 32.522V32.0315C100.533 32.2592 100.344 32.447 100.115 32.5742C99.8695 32.7221 99.5879 32.7994 99.3012 32.7977C98.9739 32.8033 98.6516 32.7168 98.3712 32.5481C98.098 32.3823 97.8751 32.1455 97.726 31.8631C97.5652 31.5552 97.4843 31.2119 97.4906 30.8647C97.4853 30.5191 97.5673 30.1777 97.7289 29.8721C97.8798 29.5885 98.1035 29.3501 98.377 29.1813C98.6522 29.0125 98.9696 28.9249 99.2925 28.9288C99.5704 28.9275 99.8439 28.9985 100.086 29.1349C100.311 29.2529 100.504 29.4243 100.647 29.6341L100.661 29.0072H101.202V32.4901C101.218 32.7419 101.181 32.9942 101.094 33.231C101.007 33.4678 100.871 33.684 100.696 33.8658C100.517 34.0322 100.306 34.1612 100.076 34.2454C99.8456 34.3296 99.6012 34.3673 99.3564 34.3563ZM99.3564 32.2724C99.5913 32.2768 99.8226 32.2152 100.024 32.0946C100.226 31.974 100.389 31.7992 100.496 31.5903C100.606 31.3643 100.664 31.1162 100.664 30.8647C100.664 30.6133 100.606 30.3651 100.496 30.1391C100.387 29.9326 100.226 29.7584 100.028 29.6341C99.8234 29.5124 99.59 29.4482 99.3521 29.4482C99.1142 29.4482 98.8807 29.5124 98.6764 29.6341C98.4795 29.7586 98.3191 29.9328 98.2113 30.1391C98.1042 30.366 98.0486 30.6138 98.0486 30.8647C98.0486 31.1156 98.1042 31.3634 98.2113 31.5903C98.317 31.8016 98.481 31.9783 98.6838 32.0996C98.8867 32.221 99.1201 32.2819 99.3564 32.2753V32.2724Z" fill="#491B47"/>
<path d="M103.886 32.792C103.54 32.7985 103.197 32.7155 102.892 32.5511C102.609 32.3928 102.375 32.1586 102.218 31.8748C102.054 31.569 101.971 31.2263 101.977 30.8793C101.97 30.5283 102.051 30.1812 102.212 29.8693C102.363 29.5827 102.589 29.3427 102.866 29.1756C103.158 29.0047 103.49 28.9173 103.828 28.9231C104.135 28.9186 104.437 28.999 104.7 29.1553C104.95 29.307 105.152 29.5264 105.281 29.788C105.425 30.0757 105.491 30.3958 105.473 30.7168V30.9635H102.523C102.529 31.3255 102.677 31.6707 102.936 31.9242C103.211 32.1708 103.572 32.299 103.942 32.2812C104.123 32.2815 104.303 32.2511 104.473 32.1912C104.687 32.1101 104.884 31.9911 105.055 31.84L105.345 32.2319C105.161 32.4039 104.946 32.5398 104.712 32.6324C104.45 32.7414 104.17 32.7958 103.886 32.792ZM103.822 29.4339C103.514 29.4267 103.213 29.5297 102.974 29.7242C102.739 29.9282 102.589 30.2132 102.555 30.5223H104.941V30.4817C104.929 30.307 104.877 30.1373 104.79 29.9854C104.698 29.8264 104.567 29.6935 104.41 29.5994C104.233 29.4909 104.03 29.4336 103.822 29.4339Z" fill="#491B47"/>
<path d="M106.244 32.7216V29.0008H106.785V29.6422C106.91 29.4256 107.092 29.247 107.311 29.1256C107.536 28.9956 107.792 28.9275 108.052 28.9282C108.292 28.9216 108.529 28.9863 108.732 29.1139C108.942 29.2698 109.092 29.4932 109.156 29.7467C109.232 29.5923 109.339 29.4551 109.47 29.3432C109.61 29.22 109.77 29.1218 109.944 29.053C110.127 28.9743 110.325 28.9347 110.525 28.9369C110.695 28.9266 110.865 28.9559 111.021 29.0223C111.177 29.0888 111.316 29.1907 111.426 29.32C111.657 29.6614 111.765 30.0704 111.734 30.481V32.7216H111.185V30.5071C111.208 30.2227 111.135 29.9389 110.979 29.7002C110.903 29.6118 110.807 29.5423 110.7 29.4974C110.592 29.4526 110.476 29.4335 110.36 29.4419C110.156 29.4357 109.955 29.4849 109.778 29.5841C109.618 29.6733 109.485 29.8035 109.392 29.9614C109.299 30.1158 109.251 30.2925 109.252 30.4723V32.7216H108.703V30.5013C108.703 29.797 108.428 29.4438 107.877 29.4419C107.681 29.4386 107.486 29.4867 107.314 29.5812C107.154 29.6674 107.021 29.7953 106.928 29.9512C106.835 30.1071 106.787 30.2852 106.788 30.4665V32.7216H106.244Z" fill="#491B47"/>
<path d="M114.384 32.7921C114.038 32.7985 113.696 32.7155 113.39 32.5512C113.108 32.3924 112.876 32.1582 112.719 31.8749C112.553 31.5699 112.468 31.2268 112.475 30.8794C112.468 30.5284 112.549 30.1812 112.71 29.8693C112.86 29.5815 113.088 29.3413 113.367 29.1757C113.658 29.0043 113.991 28.9169 114.329 28.9232C114.636 28.9185 114.938 28.9989 115.201 29.1554C115.451 29.3074 115.652 29.5267 115.782 29.7881C115.924 30.0766 115.989 30.3961 115.974 30.7168V30.9636H113.027C113.029 31.1429 113.067 31.3201 113.138 31.4849C113.209 31.6498 113.311 31.7991 113.44 31.9242C113.714 32.1706 114.074 32.2989 114.443 32.2812C114.624 32.2815 114.804 32.2511 114.974 32.1913C115.188 32.1108 115.385 31.9918 115.556 31.8401L115.846 32.2319C115.662 32.4035 115.447 32.5393 115.213 32.6324C114.95 32.7412 114.669 32.7955 114.384 32.7921ZM114.321 29.434C114.013 29.4267 113.713 29.5297 113.475 29.7242C113.24 29.9288 113.09 30.2133 113.053 30.5224H115.439V30.4817C115.433 30.3045 115.384 30.1314 115.297 29.9767C115.204 29.8176 115.072 29.6848 114.913 29.5907C114.735 29.4838 114.529 29.4294 114.321 29.434Z" fill="#491B47"/>
<path d="M116.75 32.7225V29.0016H117.285L117.299 29.6343C117.426 29.4211 117.609 29.2466 117.828 29.1293C118.059 28.9954 118.32 28.9243 118.587 28.9232C118.761 28.9122 118.936 28.9407 119.098 29.0065C119.26 29.0723 119.405 29.1738 119.523 29.3034C119.761 29.6414 119.874 30.052 119.842 30.4644V32.7282H119.293V30.5021C119.293 29.7765 119.002 29.4205 118.421 29.434C118.218 29.4291 118.018 29.4782 117.84 29.5762C117.677 29.6665 117.539 29.7962 117.439 29.9536C117.344 30.1069 117.293 30.2839 117.293 30.4644V32.7282L116.75 32.7225Z" fill="#491B47"/>
<path d="M121.372 32.7216V29.529H120.529V29.0095H121.361V28.043H121.904V29.0095H122.854V29.529H121.921V32.7216H121.372Z" fill="#491B47"/>
</g>
<defs>
<clipPath id="clip0_202_4256">
<rect width="123" height="34.4458" fill="white"/>
</clipPath>
</defs>
</svg>
